<?xml version="1.0" encoding="UTF-8"?>
<svg xmlns="http://www.w3.org/2000/svg" viewBox="0 0 920 700" font-family="Segoe UI, Arial, sans-serif">
  <defs>
    <marker id="arrow" markerWidth="10" markerHeight="8" refX="9" refY="4" orient="auto">
      <polygon points="0 0, 10 4, 0 8" fill="#334155"/>
    </marker>
    <marker id="arrowDotted" markerWidth="10" markerHeight="8" refX="9" refY="4" orient="auto">
      <polygon points="0 0, 10 4, 0 8" fill="#2563eb"/>
    </marker>
  </defs>

  <rect width="920" height="700" fill="#f8fafc"/>
  <text x="460" y="34" text-anchor="middle" font-size="20" font-weight="700" fill="#0f172a">Normal Python Program Execution on Top of the OS</text>
  <text x="460" y="58" text-anchor="middle" font-size="13" fill="#64748b">Layered architecture - sequential execution using a single OS process and one CPU core</text>

  <!-- 1. Python Script -->
  <rect x="110" y="80" width="300" height="56" rx="10" fill="#fef3c7" stroke="#d97706" stroke-width="2"/>
  <text x="260" y="104" text-anchor="middle" font-size="14" font-weight="700" fill="#92400e">1. Python Script</text>
  <text x="260" y="124" text-anchor="middle" font-size="12" fill="#b45309">my_script.py - human-readable source code</text>

  <line x1="260" y1="136" x2="260" y2="160" stroke="#334155" stroke-width="2" marker-end="url(#arrow)"/>

  <!-- 2. OS Process -->
  <rect x="60" y="162" width="400" height="70" rx="10" fill="#f3e8ff" stroke="#9333ea" stroke-width="2"/>
  <text x="260" y="190" text-anchor="middle" font-size="14" font-weight="700" fill="#6b21a8">2. OS Process</text>
  <text x="260" y="212" text-anchor="middle" font-size="12" fill="#7e22ce">OS creates a process (e.g. python.exe) to run the program</text>

  <!-- Dotted arrow from OS Process to Interpreter -->
  <line x1="460" y1="197" x2="518" y2="197" stroke="#2563eb" stroke-width="2" stroke-dasharray="6 5" marker-end="url(#arrowDotted)"/>

  <!-- 3. Python Interpreter block (right side) -->
  <rect x="520" y="100" width="350" height="270" rx="12" fill="#eff6ff" stroke="#2563eb" stroke-width="2"/>
  <text x="695" y="127" text-anchor="middle" font-size="15" font-weight="700" fill="#1d4ed8">3. Python Interpreter (CPython)</text>

  <rect x="555" y="142" width="280" height="50" rx="8" fill="#fff" stroke="#60a5fa" stroke-width="1.5"/>
  <text x="695" y="163" text-anchor="middle" font-size="13" font-weight="600" fill="#1e40af">Compiler</text>
  <text x="695" y="182" text-anchor="middle" font-size="11" fill="#334155">Reads and parses .py source file</text>

  <line x1="695" y1="192" x2="695" y2="212" stroke="#334155" stroke-width="2" marker-end="url(#arrow)"/>

  <rect x="555" y="214" width="280" height="50" rx="8" fill="#fff" stroke="#60a5fa" stroke-width="1.5"/>
  <text x="695" y="235" text-anchor="middle" font-size="13" font-weight="600" fill="#1e40af">Python Bytecode</text>
  <text x="695" y="254" text-anchor="middle" font-size="11" fill="#334155">Source compiled to bytecode (.pyc)</text>

  <line x1="695" y1="264" x2="695" y2="284" stroke="#334155" stroke-width="2" marker-end="url(#arrow)"/>

  <rect x="555" y="286" width="280" height="56" rx="8" fill="#dbeafe" stroke="#2563eb" stroke-width="1.5"/>
  <text x="695" y="309" text-anchor="middle" font-size="13" font-weight="600" fill="#1e40af">PVM (Python Virtual Machine)</text>
  <text x="695" y="329" text-anchor="middle" font-size="11" fill="#334155">Reads and executes bytecode instructions</text>

  <!-- Arrow from OS Process down to OS Layer -->
  <line x1="260" y1="232" x2="260" y2="398" stroke="#334155" stroke-width="2" marker-end="url(#arrow)"/>

  <!-- 4. OS Layer -->
  <rect x="60" y="400" width="800" height="96" rx="12" fill="#ecfdf5" stroke="#059669" stroke-width="2"/>
  <text x="460" y="426" text-anchor="middle" font-size="15" font-weight="700" fill="#047857">4. Operating System Layer</text>

  <rect x="100" y="440" width="200" height="40" rx="6" fill="#fff" stroke="#34d399" stroke-width="1.5"/>
  <text x="200" y="465" text-anchor="middle" font-size="12" fill="#065f46">Memory Management</text>

  <rect x="360" y="440" width="200" height="40" rx="6" fill="#fff" stroke="#34d399" stroke-width="1.5"/>
  <text x="460" y="465" text-anchor="middle" font-size="12" fill="#065f46">Process Management</text>

  <rect x="620" y="440" width="200" height="40" rx="6" fill="#fff" stroke="#34d399" stroke-width="1.5"/>
  <text x="720" y="465" text-anchor="middle" font-size="12" fill="#065f46">I/O and Resource Mgmt</text>

  <line x1="460" y1="496" x2="460" y2="518" stroke="#334155" stroke-width="2" marker-end="url(#arrow)"/>

  <!-- 5. Hardware -->
  <rect x="60" y="520" width="800" height="110" rx="12" fill="#fff1f2" stroke="#e11d48" stroke-width="2"/>
  <text x="460" y="546" text-anchor="middle" font-size="15" font-weight="700" fill="#be123c">5. Hardware Layer</text>

  <rect x="110" y="562" width="280" height="52" rx="8" fill="#fff" stroke="#fb7185" stroke-width="1.5"/>
  <text x="250" y="586" text-anchor="middle" font-size="13" font-weight="600" fill="#9f1239">Main Memory (RAM)</text>
  <text x="250" y="604" text-anchor="middle" font-size="11" fill="#64748b">Stores process data and bytecode</text>

  <rect x="450" y="562" width="360" height="52" rx="8" fill="#fff" stroke="#fb7185" stroke-width="1.5"/>
  <text x="630" y="582" text-anchor="middle" font-size="13" font-weight="600" fill="#9f1239">CPU - Multiple Cores</text>
  <g>
    <rect x="490" y="590" width="50" height="18" rx="4" fill="#22c55e" stroke="#15803d" stroke-width="1.5"/>
    <text x="515" y="603" text-anchor="middle" font-size="9" fill="#fff" font-weight="700">Core 1</text>
    <rect x="548" y="590" width="50" height="18" rx="4" fill="#e2e8f0" stroke="#94a3b8" stroke-width="1.5"/>
    <text x="573" y="603" text-anchor="middle" font-size="9" fill="#64748b">Core 2</text>
    <rect x="606" y="590" width="50" height="18" rx="4" fill="#e2e8f0" stroke="#94a3b8" stroke-width="1.5"/>
    <text x="631" y="603" text-anchor="middle" font-size="9" fill="#64748b">Core 3</text>
    <rect x="664" y="590" width="50" height="18" rx="4" fill="#e2e8f0" stroke="#94a3b8" stroke-width="1.5"/>
    <text x="689" y="603" text-anchor="middle" font-size="9" fill="#64748b">Core 4</text>
    <text x="745" y="603" font-size="10" fill="#15803d">active</text>
  </g>

  <text x="460" y="668" text-anchor="middle" font-size="11" fill="#64748b">By default, a simple Python script runs sequentially on one core; other cores remain available but unused</text>
</svg>
